<?xml version="1.0" standalone="no"?>
<!DOCTYPE svg PUBLIC "-//W3C//DTD SVG 20010904//EN"
 "http://www.w3.org/TR/2001/REC-SVG-20010904/DTD/svg10.dtd">
<svg version="1.0" xmlns="http://www.w3.org/2000/svg"
 width="150.000000pt" height="150.000000pt" viewBox="0 0 150.000000 150.000000"
 preserveAspectRatio="xMidYMid meet">
<metadata>
Created by potrace 1.14, written by Peter Selinger 2001-2017
</metadata>
<g transform="translate(0.000000,150.000000) scale(0.100000,-0.100000)"
fill="#000000" stroke="none">
<path d="M1052 977 c13 -13 43 -39 68 -58 63 -47 121 -109 114 -120 -3 -5 0
-8 8 -7 7 2 12 -3 11 -9 -2 -7 3 -13 11 -13 9 0 13 -7 11 -20 -2 -11 1 -20 6
-20 6 0 7 -4 4 -10 -3 -5 -1 -10 5 -10 6 0 8 -4 5 -10 -3 -5 -1 -10 5 -10 7 0
9 -7 6 -16 -3 -8 -1 -25 5 -36 8 -15 8 -19 0 -14 -6 4 -11 3 -11 -2 0 -6 7
-13 17 -16 14 -6 14 -8 -3 -21 -13 -10 -14 -14 -4 -13 16 3 21 -45 8 -74 -6
-13 -3 -15 12 -11 11 3 17 9 14 14 -3 5 0 9 5 9 6 0 11 7 11 16 0 9 5 12 12 8
8 -5 9 -2 5 9 -3 10 -2 17 4 17 6 0 8 4 5 9 -4 5 -1 11 5 13 6 2 12 16 12 31
1 15 6 27 10 27 5 0 6 4 2 9 -3 5 -1 13 5 16 8 5 8 11 0 20 -8 9 -8 15 0 20 5
3 10 11 10 16 0 6 -6 7 -12 3 -10 -6 -10 -4 -2 7 13 18 12 27 -9 67 -24 44
-49 72 -64 72 -7 0 -13 8 -13 17 0 9 -3 13 -7 10 -3 -4 -12 1 -20 11 -9 10
-12 11 -7 2 6 -11 2 -10 -13 3 -11 9 -23 14 -26 10 -4 -3 -7 -1 -7 6 0 7 -4 9
-10 6 -5 -3 -10 -1 -10 4 0 6 -14 11 -31 11 -24 0 -30 4 -25 15 4 12 2 13 -13
6 -12 -7 -26 -6 -45 5 -33 16 -39 17 -31 5 3 -5 0 -13 -6 -17 -8 -4 -9 -3 -5
4 3 6 -2 16 -13 21 -31 17 -34 13 -9 -12z"/>
<path d="M1168 651 c-7 -10 -23 -21 -35 -25 -13 -4 -23 -12 -23 -18 0 -6 -3
-8 -7 -5 -3 4 -15 -1 -25 -10 -10 -9 -29 -18 -41 -20 -11 -2 -24 -8 -28 -14
-3 -6 -12 -12 -20 -13 -22 -5 -85 -35 -74 -36 6 0 4 -4 -4 -9 -8 -5 -22 -8
-32 -6 -10 2 -18 -1 -16 -8 1 -6 -8 -13 -20 -15 -13 -2 -23 -8 -23 -13 0 -6
-4 -8 -9 -5 -5 3 -14 -1 -21 -9 -7 -8 -16 -12 -21 -9 -5 3 -9 0 -9 -7 0 -7 -3
-9 -6 -6 -4 4 -19 -2 -34 -13 -16 -11 -33 -20 -40 -20 -6 0 -9 -4 -5 -9 3 -6
-4 -8 -15 -6 -11 2 -20 -1 -20 -6 0 -6 -5 -7 -10 -4 -5 3 -10 2 -10 -4 0 -6
-7 -8 -15 -5 -8 4 -15 1 -15 -6 0 -9 -3 -10 -13 -1 -8 6 -17 8 -20 4 -4 -3
-13 0 -22 7 -13 11 -14 10 -9 -3 4 -11 1 -14 -13 -11 -43 9 -133 9 -133 -1 0
-6 -3 -7 -8 0 -4 6 -22 10 -39 10 l-33 0 0 -55 0 -55 234 0 c129 0 232 3 230
7 -3 5 0 8 7 8 6 0 23 12 37 28 13 15 21 21 17 13 -6 -9 -4 -12 3 -7 7 4 12
14 12 23 0 9 2 14 5 11 3 -3 31 19 62 48 31 30 60 54 64 54 5 0 9 8 9 17 0 9
3 13 7 10 3 -4 16 5 29 18 13 14 28 25 34 25 5 0 9 3 8 8 -4 9 34 47 55 55 9
3 17 13 17 22 0 8 5 15 11 15 5 0 7 -5 3 -12 -5 -7 -3 -8 5 -4 7 5 10 10 7 13
-2 3 7 16 22 30 15 14 19 20 10 13 -20 -14 -24 0 -6 18 7 7 9 12 6 12 -4 0
-13 -8 -20 -19z"/>
</g>
</svg>
